<svg xmlns="http://www.w3.org/2000/svg" viewBox="0 0 1126.31 267.28"><defs><style>.cls-1{fill:#bbb;}</style></defs><title>Trasnparence_Logo</title><g id="Layer_2" data-name="Layer 2"><g id="Layer_1-2" data-name="Layer 1"><path d="M329.28,175.27V99.43H301.4V82.23h76.22v17.2H349.74v75.84Z"/><path d="M383.75,175.27V107.9h17.59v12.51h.26a21.82,21.82,0,0,1,8.6-10.29,23.07,23.07,0,0,1,12.9-4,12.85,12.85,0,0,1,4,.65v17.2a30.51,30.51,0,0,0-6.65-.65q-18.24,0-18.24,21.63v30.36Z"/><path d="M449.55,128.62h-18.5q.78-12,10.55-17.72,8.08-4.82,21.11-4.82,29.58,0,29.58,19.15v35.06q0,11.21,2.34,15H475.87a25.1,25.1,0,0,1-1.3-6.51q-7.95,8.34-22.68,8.33-10.15,0-16.28-5Q429,166.8,429,156.9q0-10.29,7.17-15.38,5.21-3.51,15.76-5.08,15-2.08,15.25-2.21,6.64-1.69,6.65-6.65,0-5.47-3.65-7.56-2.61-1.56-8.34-1.56Q450.46,118.46,449.55,128.62Zm24.24,20.59V142.3q-2.22,2-9.65,3-8.46,1.3-11.2,2.48a8.54,8.54,0,0,0-5.48,8.34q0,8.59,11.34,8.6Q473.79,164.72,473.79,149.21Z"/><path d="M504,175.27V107.9h17.6v9.39H522q6.9-11.21,20.58-11.21,13.95,0,19.68,7.56,4.95,6.51,5,20.19v41.44h-18.5V137.22q0-16.55-11.86-16.55-7.56,0-10.94,4.56T522.52,140v35.31Z"/><path d="M575.42,153.38H593a10.29,10.29,0,0,0,4.43,8.73,16.85,16.85,0,0,0,9.77,2.61,16.29,16.29,0,0,0,8.08-1.83,7.42,7.42,0,0,0,4-6.77c0-2.61-1.82-4.69-5.47-6.26q-3.92-1.7-15.51-4.17-9.9-2.08-14.72-5.47A14.18,14.18,0,0,1,577,127.71q0-21.63,29.32-21.63,27.88,0,29.71,21.5H618.42q-.66-9.12-12.64-9.12-10.29,0-10.29,6.25,0,4.3,6.51,6.65.78.25,14.46,3.39,10,2.34,14.73,5.73a15.18,15.18,0,0,1,6.64,13.16q0,12.26-9.64,18.37-8,5.09-21.11,5.08t-21.37-5.21Q575.95,165.76,575.42,153.38Z"/><path d="M646,199V107.9h17.59v8.6h.26q6.39-10.41,20.07-10.42,15,0,23.19,11,7.43,9.77,7.43,25.27,0,14.47-7.43,24.11-8.07,10.68-22.15,10.68-13.43,0-20.2-10.16h-.26V199Zm34-35.84q16,0,16-21.37,0-9.12-3.65-14.85A13.86,13.86,0,0,0,679.92,120q-8.48,0-12.51,6.78-3.51,5.73-3.52,15t3.65,14.73Q671.71,163.16,680.05,163.15Z"/><path d="M740.77,128.62h-18.5q.78-12,10.55-17.72,8.08-4.82,21.11-4.82,29.58,0,29.58,19.15v35.06q0,11.21,2.35,15H767.09a25.1,25.1,0,0,1-1.3-6.51q-7.95,8.34-22.67,8.33-10.17,0-16.29-5-6.65-5.34-6.65-15.24,0-10.29,7.17-15.38,5.21-3.51,15.77-5.08c10-1.39,15.07-2.13,15.24-2.21q6.64-1.69,6.65-6.65,0-5.47-3.65-7.56-2.61-1.56-8.34-1.56Q741.68,118.46,740.77,128.62ZM765,149.21V142.3q-2.22,2-9.65,3-8.46,1.3-11.2,2.48a8.53,8.53,0,0,0-5.47,8.34q0,8.59,11.33,8.6Q765,164.72,765,149.21Z"/><path d="M795.23,175.27V107.9h17.6v12.51h.26a21.77,21.77,0,0,1,8.6-10.29,23.07,23.07,0,0,1,12.9-4,12.89,12.89,0,0,1,4,.65v17.2a30.57,30.57,0,0,0-6.65-.65q-18.24,0-18.24,21.63v30.36Z"/><path d="M907.16,146.08h-48.6q.78,17.07,16.55,17.07a17,17,0,0,0,9.64-2.86q4-2.47,5-5.87H906q-7.43,22.68-31.53,22.67-15.76,0-25.09-9.83t-9.31-25.61q0-15.37,9.57-25.47t24.83-10.1q16.41,0,25.41,12.25Q908.21,129.54,907.16,146.08Zm-48.6-11.72h30.1Q886.05,120,873.94,120q-7.83,0-12,5.21A15.43,15.43,0,0,0,858.56,134.36Z"/><path d="M915.5,175.27V107.9h17.59v9.39h.39q6.91-11.21,20.59-11.21,13.95,0,19.68,7.56,4.95,6.51,5,20.19v41.44H960.2V137.22q0-16.55-11.86-16.55-7.56,0-11,4.56T934,140v35.31Z"/><path d="M1054.14,131.62H1036Q1034.2,120,1022.35,120q-8.08,0-12.38,7.17-3.39,6-3.39,14.72,0,8.47,3.39,14.21a13,13,0,0,0,12,7q12.76,0,14.72-13.68h17.85q-1.69,13.29-10.36,20.46t-22.08,7.16q-15.12,0-24.56-9.64t-9.45-24.89q0-16.16,9-26.06,9.38-10.41,25.41-10.42,12.76,0,21.37,6.25Q1053.36,119.38,1054.14,131.62Z"/><path d="M1126.2,146.08h-48.6q.78,17.07,16.54,17.07a17,17,0,0,0,9.65-2.86q4-2.47,5-5.87H1125q-7.44,22.68-31.54,22.67-15.77,0-25.08-9.83t-9.32-25.61q0-15.37,9.58-25.47t24.82-10.1q16.42,0,25.41,12.25Q1127.24,129.54,1126.2,146.08Zm-48.6-11.72h30.1Q1105.09,120,1093,120q-7.82,0-12,5.21A15.48,15.48,0,0,0,1077.6,134.36Z"/><path class="cls-1" d="M237.82,95.83a100.37,100.37,0,0,0-41.4-24.91A100.47,100.47,0,1,0,70.77,196.36,100.45,100.45,0,1,0,237.82,95.83Zm-9.19,132.85a87.44,87.44,0,1,1-68.53-149,6.5,6.5,0,1,0-1-13A99.68,99.68,0,0,0,67.55,181.46a87.41,87.41,0,1,1,40.39,6.08,6.5,6.5,0,0,0,.56,13l.56,0A99.75,99.75,0,0,0,199.64,85.81a87.44,87.44,0,0,1,29,142.87Z"/></g></g></svg>